<?xml version="1.0" encoding="utf-8"?><svg xmlns="http://www.w3.org/2000/svg" xmlns:xlink="http://www.w3.org/1999/xlink"><symbol viewBox="0 0 24 24" id="airplane" xmlns="http://www.w3.org/2000/svg"><path d="M19.552 2.997a2.23 2.23 0 00-.7.167h-.002c-.214.085-1.23.513-2.775 1.16l-5.537 2.332C6.565 8.33 2.66 9.976 2.66 9.976l.047-.018s-.27.088-.55.281c-.175.11-.324.255-.44.425a1.246 1.246 0 00-.208.833c.068.541.419.866.67 1.045.256.182.499.267.499.267h.006l3.662 1.233c.164.527 1.116 3.656 1.345 4.377.135.43.266.7.43.905.08.105.172.193.284.264.058.034.12.06.185.08l-.038-.01c.011.003.02.012.029.015.03.009.05.012.088.018.58.175 1.046-.185 1.046-.185l.026-.021 2.162-1.969 3.624 2.78.083.036c.755.331 1.52.147 1.924-.179.408-.327.566-.747.566-.747l.026-.067 2.8-14.347c.08-.354.1-.685.013-1.007-.091-.326-.3-.606-.586-.785a1.404 1.404 0 00-.8-.203zm-.075 1.538c-.003.047.006.042-.015.132v.009l-2.774 14.197c-.012.02-.033.064-.088.109-.059.046-.105.076-.349-.021l-4.433-3.398-2.677 2.44.563-3.592 7.241-6.75c.299-.278.2-.336.2-.336.02-.341-.451-.1-.451-.1L7.56 12.882l-.002-.015-4.378-1.474v-.003l-.01-.002a.185.185 0 00.022-.009l.024-.012.023-.008 7.881-3.32c1.989-.837 3.993-1.681 5.534-2.332 1.541-.647 2.68-1.122 2.745-1.148.062-.024.033-.024.077-.024z"/></symbol><symbol viewBox="0 0 25 24" id="fb" xmlns="http://www.w3.org/2000/svg"><path d="M13.897 20.997v-8.196h2.765l.411-3.209h-3.176V7.548c0-.926.258-1.56 1.587-1.56h1.684V3.127c-.82-.088-1.643-.13-2.467-.127-2.444 0-4.122 1.492-4.122 4.231v2.355H7.832v3.209h2.753v8.202h3.312z"/></symbol><symbol viewBox="0 0 24 24" id="inst" xmlns="http://www.w3.org/2000/svg"><path d="M12 4c-2.171 0-2.444.01-3.297.048-.853.04-1.434.174-1.943.372-.534.2-1.018.516-1.417.923-.407.4-.722.883-.923 1.417-.198.508-.333 1.09-.372 1.94C4.01 9.555 4 9.827 4 12.001c0 2.172.01 2.444.048 3.297.04.852.174 1.433.372 1.942.205.526.478.972.923 1.417.444.445.89.719 1.416.923.51.198 1.09.333 1.942.372C9.555 19.99 9.827 20 12 20s2.444-.01 3.298-.048c.851-.04 1.434-.174 1.943-.372a3.915 3.915 0 001.416-.923c.445-.445.718-.891.923-1.417.197-.509.332-1.09.372-1.942.038-.853.048-1.125.048-3.298s-.01-2.445-.048-3.299c-.04-.851-.175-1.433-.372-1.941a3.927 3.927 0 00-.923-1.417 3.911 3.911 0 00-1.417-.923c-.51-.198-1.092-.333-1.943-.372C14.443 4.01 14.172 4 11.998 4h.003H12zm-.717 1.442h.718c2.136 0 2.389.007 3.232.046.78.035 1.204.166 1.486.275.373.145.64.319.92.599.28.28.453.546.598.92.11.281.24.705.275 1.485.039.843.047 1.096.047 3.231s-.008 2.389-.047 3.232c-.035.78-.166 1.203-.275 1.485a2.47 2.47 0 01-.599.919c-.28.28-.546.453-.92.598-.28.11-.704.24-1.485.276-.843.038-1.096.047-3.232.047s-2.39-.009-3.233-.047c-.78-.036-1.203-.166-1.485-.276a2.478 2.478 0 01-.92-.598 2.48 2.48 0 01-.6-.92c-.109-.281-.24-.705-.275-1.485-.038-.843-.046-1.096-.046-3.233 0-2.136.008-2.388.046-3.231.036-.78.166-1.204.276-1.486.145-.373.319-.64.599-.92.28-.28.546-.453.92-.598.282-.11.705-.24 1.485-.276.738-.034 1.024-.044 2.515-.045v.002zm4.988 1.328a.96.96 0 100 1.92.96.96 0 000-1.92zm-4.27 1.122a4.11 4.11 0 10-.128 8.217A4.11 4.11 0 0012 7.892zm0 1.441a2.667 2.667 0 110 5.335 2.667 2.667 0 010-5.335z"/></symbol><symbol viewBox="0 0 24 24" id="minus" xmlns="http://www.w3.org/2000/svg"><path fill-rule="evenodd" clip-rule="evenodd" d="M19.5 13h-14v-2h14v2z"/></symbol><symbol viewBox="0 0 24 24" id="plus" xmlns="http://www.w3.org/2000/svg"><path fill-rule="evenodd" clip-rule="evenodd" d="M11.5 19V5h2v14h-2z"/><path fill-rule="evenodd" clip-rule="evenodd" d="M19.5 13h-14v-2h14v2z"/></symbol><symbol viewBox="0 0 40 40" id="to-page" xmlns="http://www.w3.org/2000/svg"><path d="M35 5h.833v-.833H35V5zM5 5.833h30V4.167H5v1.666zM34.167 5v30h1.666V5h-1.666zm-.59.244L5.244 33.577l1.179 1.179L34.756 6.423l-1.179-1.179z"/></symbol></svg>