<svg width="34" height="34" viewBox="0 0 34 34" fill="none" xmlns="http://www.w3.org/2000/svg">
<mask id="mask0_149_8242" style="mask-type:alpha" maskUnits="userSpaceOnUse" x="0" y="0" width="34" height="34">
<circle r="17" transform="matrix(-1 0 0 1 17 17)" fill="#D6A24F"/>
</mask>
<g mask="url(#mask0_149_8242)">
<g filter="url(#filter0_f_149_8242)">
<path d="M-9.86868 17.0003C-9.86868 20.5289 -9.17366 24.0229 -7.82333 27.2829C-6.47299 30.5429 -4.49377 33.505 -1.99867 36.0001L17.0012 17.0003H-9.86868Z" fill="#613288"/>
<path d="M-1.99963 -1.99963C-4.49473 0.495472 -6.47395 3.45759 -7.82429 6.71759C-9.17463 9.97759 -9.86964 13.4716 -9.86964 17.0002L17.0002 17.0002L-1.99963 -1.99963Z" fill="#6F6E6E"/>
<path d="M17.0012 -9.86965C13.4726 -9.86965 9.97855 -9.17464 6.71855 -7.8243C3.45854 -6.47396 0.496427 -4.49474 -1.99867 -1.99964L17.0012 17.0002L17.0012 -9.86965Z" fill="#F19EC4"/>
<path d="M35.9999 -1.99988C33.5048 -4.49498 30.5427 -6.4742 27.2827 -7.82454C24.0227 -9.17487 20.5286 -9.86988 17 -9.86988V17L35.9999 -1.99988Z" fill="#F9D52D"/>
<path d="M43.8706 17.0002C43.8706 13.4716 43.1756 9.97758 41.8253 6.71757C40.4749 3.45757 38.4957 0.495453 36.0006 -1.99965L17.0007 17.0002L43.8706 17.0002Z" fill="#E37D1A"/>
<path d="M36.0016 36.0001C38.4967 33.505 40.4759 30.5429 41.8262 27.2829C43.1766 24.0229 43.8716 20.5288 43.8716 17.0002H17.0017L36.0016 36.0001Z" fill="#A6201E"/>
<path d="M17.0007 43.8701C20.5293 43.8701 24.0234 43.1751 27.2834 41.8248C30.5434 40.4745 33.5055 38.4952 36.0006 36.0001L17.0007 17.0003L17.0007 43.8701Z" fill="#346E3D"/>
<path d="M-1.99988 36.0004C0.495223 38.4955 3.45734 40.4747 6.71734 41.825C9.97735 43.1754 13.4714 43.8704 17 43.8704V17.0005L-1.99988 36.0004Z" fill="#29306C"/>
</g>
</g>
<defs>
<filter id="filter0_f_149_8242" x="-17.8691" y="-17.8699" width="69.7402" height="69.7402" filterUnits="userSpaceOnUse" color-interpolation-filters="sRGB">
<feFlood flood-opacity="0" result="BackgroundImageFix"/>
<feBlend mode="normal" in="SourceGraphic" in2="BackgroundImageFix" result="shape"/>
<feGaussianBlur stdDeviation="4" result="effect1_foregroundBlur_149_8242"/>
</filter>
</defs>
</svg>
